PathFileType	4	(X/Y/Z)	C:\Users\Basilio\Documents\Thesis Gigler\squatting_fais\c3dfiles\054\SLS_front_pre5\markers_experimental.trc
DataRate	CameraRate	NumFrames	NumMarkers	Units	OrigDataRate	OrigDataStartFrame	OrigNumFrames
200.000000	200.000000	4	61	mm	200.000000	706	1413
Frame#	Time	FHD			LBHD			RBHD			C7			T10			CLAV			LSHO			LUUPA			LMUPA			LDUPA			LLEP			LMEP			LRAD			LUL			LRFIN			RSHO			RUPA1			RMUPA			RDUPA			RLEP			RMEP			RRAD			RUL			RUFIN			LASI			RASI			USACR			LSACR			RSACR			LTHI1			LTHI2			LTHI3			LTHI4			LLFC			LMFC			LTIB1			LTIB2			LTIB3			LTIB4			LLMAL			LMMAL			LHEE			LMT1			LMT2			LMT5			RTHI			RTHI2			RTHI3			RTHI4			RLFC			RMFC			RTIB1			RTIB2			RTIB3			RTIB4			RLMAL			RMMAL			RHEE			RMT1			RMT2			RMT5			
		X1	Y1	Z1	X2	Y2	Z2	X3	Y3	Z3	X4	Y4	Z4	X5	Y5	Z5	X6	Y6	Z6	X7	Y7	Z7	X8	Y8	Z8	X9	Y9	Z9	X10	Y10	Z10	X11	Y11	Z11	X12	Y12	Z12	X13	Y13	Z13	X14	Y14	Z14	X15	Y15	Z15	X16	Y16	Z16	X17	Y17	Z17	X18	Y18	Z18	X19	Y19	Z19	X20	Y20	Z20	X21	Y21	Z21	X22	Y22	Z22	X23	Y23	Z23	X24	Y24	Z24	X25	Y25	Z25	X26	Y26	Z26	X27	Y27	Z27	X28	Y28	Z28	X29	Y29	Z29	X30	Y30	Z30	X31	Y31	Z31	X32	Y32	Z32	X33	Y33	Z33	X34	Y34	Z34	X35	Y35	Z35	X36	Y36	Z36	X37	Y37	Z37	X38	Y38	Z38	X39	Y39	Z39	X40	Y40	Z40	X41	Y41	Z41	X42	Y42	Z42	X43	Y43	Z43	X44	Y44	Z44	X45	Y45	Z45	X46	Y46	Z46	X47	Y47	Z47	X48	Y48	Z48	X49	Y49	Z49	X50	Y50	Z50	X51	Y51	Z51	X52	Y52	Z52	X53	Y53	Z53	X54	Y54	Z54	X55	Y55	Z55	X56	Y56	Z56	X57	Y57	Z57	X58	Y58	Z58	X59	Y59	Z59	X60	Y60	Z60	X61	Y61	Z61	

707	3.53	-186.9315795898438	1512.268920898438	-1088.498413085938	-347.8217163085938	1459.48681640625	-1160.9765625	-367.0130004882813	1460.918579101563	-1021.440856933594	-408.5225219726564	1310.560791015625	-1077.04541015625	-514.6287841796876	996.3690185546877	-1073.588500976563	-275.1718139648438	1232.131225585938	-1084.355346679688	-323.7518615722657	1315.636474609375	-1221.40966796875	-169.0714263916016	1209.556396484375	-1347.038696289063	-137.4776000976563	1244.095092773438	-1331.565307617188	-100.6561584472657	1203.456176757813	-1356.554809570313	-43.33589172363282	1207.746459960938	-1352.02783203125	-43.08679962158204	1139.354248046875	-1313.353149414063	213.5360717773438	1221.075927734375	-1280.754272460938	226.8843994140626	1195.490356445313	-1352.424438476563	305.4482727050782	1240.641479492188	-1299.919799804688	-326.8964538574219	1308.71728515625	-944.5354003906252	-169.7540740966797	1213.113891601563	-816.2432250976565	-136.1648254394532	1244.845458984375	-830.4834594726565	-100.7672500610352	1201.4619140625	-805.5441894531252	-56.83003997802736	1199.20556640625	-808.2927856445315	-57.67924118041994	1138.280151367188	-853.1679687500002	209.9314117431641	1245.061279296875	-906.564880371094	210.0995025634766	1217.017456054688	-832.0335083007815	285.6469421386719	1275.228759765625	-891.451599121094	-354.1988220214844	813.9885253906252	-1176.65673828125	-349.6475524902344	843.747985839844	-930.2933349609377	-535.1044311523439	894.0120239257815	-1061.0009765625	-542.6032714843751	859.2446899414065	-1085.923950195313	-538.7960815429689	863.6338500976565	-1029.52783203125	-296.4397888183594	598.9205322265626	-1245.275268554688	-214.9645080566407	571.2444458007814	-1240.833618164063	-186.250244140625	608.5011596679689	-1236.211181640625	-193.4790344238282	516.7574462890626	-1224.443481445313	-96.22402191162112	424.0733032226564	-1191.781982421875	-69.29772186279298	454.9004821777345	-1054.7958984375	-124.2010574340821	288.7480773925782	-1103.43359375	-189.9231262207032	260.0534667968751	-1156.275024414063	-160.5565185546875	247.5049896240235	-1125.468505859375	-207.8661041259766	196.5514831542969	-1077.3828125	-332.3498535156251	108.0531234741211	-1102.04541015625	-296.9687194824219	134.351058959961	-1012.29833984375	-406.5196228027345	105.6145172119141	-1038.504516601563	-197.3416900634766	55.93647384643556	-1018.300109863281	-188.710205078125	53.03227996826173	-1067.692016601563	-242.6935729980469	38.52009963989259	-1117.9638671875	-212.5471801757813	625.2766723632814	-850.233093261719	-146.8656921386719	628.9846801757814	-862.0084228515627	-131.0132293701172	656.5560302734376	-871.2772216796877	-97.37702941894534	563.5133666992189	-878.6707763671877	-36.36590957641602	501.0303039550782	-887.7969970703127	-22.16046714782715	536.2644653320314	-1019.560974121094	69.68852996826173	449.1062622070314	-904.7883300781252	59.55621337890626	348.3216857910157	-872.1566162109377	99.55548095703128	369.3187866210938	-884.3284301757815	137.5306243896485	337.4136047363282	-914.3981933593752	191.787338256836	161.0044097900391	-902.0830688476565	214.3284759521485	194.1909790039063	-987.6094970703127	163.6532135009766	98.17300415039065	-963.0091552734377	362.0204772949219	202.3567504882813	-967.2476806640627	357.5041198730469	211.7775115966797	-918.8572998046877	323.2847900390626	171.2877502441407	-871.0595703125002	
708	3.535	-186.4819488525391	1510.94970703125	-1088.356079101563	-347.2873840332032	1458.2734375	-1160.89697265625	-366.5075683593751	1459.474365234375	-1021.512573242188	-408.3348693847657	1309.467163085938	-1077.137573242188	-514.8929443359376	995.4177856445315	-1073.642333984375	-274.9349670410157	1230.835327148438	-1084.185913085938	-323.1355590820313	1314.1611328125	-1221.242797851563	-168.2165985107422	1208.739013671875	-1346.759155273438	-136.7299194335938	1243.04931640625	-1331.182006835938	-99.78729248046878	1202.693603515625	-1356.20947265625	-42.90707015991212	1207.23876953125	-1351.658325195313	-42.29623794555665	1138.550048828125	-1312.880126953125	214.2396087646485	1220.208984375	-1280.551513671875	228.1723175048829	1194.565307617188	-1352.442016601563	306.7743835449219	1239.58984375	-1299.75927734375	-326.6716918945313	1307.548706054688	-944.5838623046877	-169.5926971435547	1211.88525390625	-816.3389282226565	-136.4081573486328	1243.688720703125	-830.6225585937502	-100.7468795776367	1200.58837890625	-805.7880859375002	-56.53959274291994	1197.895263671875	-809.302185058594	-57.50425338745119	1137.177612304688	-853.4101562500002	209.4955444335938	1244.157348632813	-906.264343261719	210.2862091064454	1215.923461914063	-831.9932861328127	285.8691711425782	1274.047485351563	-891.439392089844	-354.4226379394532	812.488952636719	-1176.610595703125	-349.8895568847657	842.575378417969	-930.1594238281252	-535.2421264648439	892.8183593750002	-1060.936645507813	-541.6937866210939	857.8521118164065	-1085.989990234375	-539.0310058593751	862.6909790039065	-1029.48583984375	-296.2473144531251	597.9752807617189	-1245.110595703125	-214.9308776855469	570.6222534179689	-1240.667358398438	-186.6671447753907	608.0575561523439	-1236.160034179688	-193.3460693359376	516.1684570312501	-1224.238525390625	-95.84347534179689	423.888885498047	-1191.665893554688	-68.70118713378908	454.6068725585939	-1054.493408203125	-124.0784378051758	288.6779174804688	-1103.2109375	-189.7628631591797	259.9659423828126	-1156.054443359375	-160.2943878173828	247.3026275634766	-1125.255126953125	-207.7740325927735	196.5084381103516	-1077.202026367188	-332.3412170410157	108.0702819824219	-1101.9697265625	-296.9491882324219	134.3043670654297	-1012.176635742188	-406.4932250976564	105.6210708618164	-1038.462280273438	-197.3220825195313	55.8594093322754	-1018.236450195313	-188.6904602050782	53.03698348999025	-1067.646362304688	-242.7412872314454	38.59703063964844	-1117.933959960938	-212.2778778076172	625.0026855468751	-850.1516723632815	-146.60693359375	628.6080322265626	-862.184753417969	-130.5776977539063	656.1445312500001	-871.5706176757815	-97.06702423095706	563.3055419921876	-878.7753906250002	-35.77956771850587	500.8102111816407	-888.1348876953127	-22.19498825073243	535.9408569335939	-1019.888427734375	69.99339294433595	448.8170471191407	-905.300964355469	59.98950958251955	348.0309143066407	-872.6653442382815	99.73098754882815	368.8922119140626	-884.9891357421877	137.5771484375	337.0168151855469	-914.954040527344	191.8675384521485	160.42578125	-902.743835449219	214.0577239990235	193.5557403564454	-988.320983886719	163.3845520019532	97.77897644042972	-963.3065185546877	361.6901245117188	201.6163330078126	-968.7380981445315	357.5030517578126	211.1079406738282	-920.1810302734377	323.6271057128907	170.401107788086	-872.287048339844	
709	3.54	-186.2324371337891	1509.630981445313	-1088.091552734375	-346.9775390625001	1456.934448242188	-1160.830932617188	-366.3286437988282	1458.33837890625	-1021.327392578125	-408.0317382812501	1308.25439453125	-1077.18408203125	-514.9448242187501	994.3988037109377	-1073.576538085938	-274.7773742675782	1229.508911132813	-1084.07666015625	-322.6978454589844	1313.14501953125	-1221.3271484375	-167.4566650390625	1207.539794921875	-1346.4404296875	-135.9494934082032	1242.193603515625	-1330.705444335938	-98.71085357666018	1201.795043945313	-1355.732055664063	-41.97945404052735	1206.3984375	-1351.225463867188	-41.35343170166016	1137.797607421875	-1312.626342773438	215.1119384765626	1219.362670898438	-1280.397583007813	229.0694122314454	1193.773193359375	-1352.26904296875	307.4621887207032	1238.868896484375	-1299.635498046875	-326.6162109375001	1306.513671875	-944.5867919921877	-169.4563903808594	1210.712280273438	-816.5723876953127	-136.0501556396485	1242.590087890625	-830.743591308594	-100.3701477050782	1199.217895507813	-805.7697753906252	-56.59378051757814	1196.883056640625	-808.4761962890627	-57.497127532959	1136.083862304688	-853.5906982421877	209.4190521240235	1243.027221679688	-906.182556152344	210.5447082519532	1214.68505859375	-832.0224609375002	286.0188293457032	1272.830810546875	-891.3579711914065	-354.8282775878907	811.6290283203127	-1176.566650390625	-349.9843750000001	841.588562011719	-930.0212402343752	-535.5066528320314	891.8164062500002	-1060.877685546875	-542.7186279296876	856.930603027344	-1085.9619140625	-539.1830444335939	861.4482421875002	-1029.408935546875	-296.4391174316407	597.2135620117189	-1244.901245117188	-214.9404907226563	570.0123291015626	-1240.525024414063	-186.8650817871094	607.4328002929689	-1235.9423828125	-193.2017211914063	515.5820312500001	-1224.006958007813	-95.92123413085939	423.8455200195314	-1191.482177734375	-68.33812713623048	454.4438476562501	-1054.311889648438	-123.9628982543946	288.6375427246094	-1102.982666015625	-189.5004425048828	259.9043273925782	-1155.920043945313	-160.2125549316407	247.2626495361329	-1125.071533203125	-207.7014312744141	196.4793701171876	-1077.079345703125	-332.3121643066407	108.1334609985352	-1101.956909179688	-296.8567504882813	134.2633972167969	-1012.070739746094	-406.4880676269532	105.608627319336	-1038.455078125	-197.2888488769532	55.78096771240236	-1018.200378417969	-188.6958160400391	53.01625823974611	-1067.62841796875	-242.6228790283204	38.51299285888673	-1117.950073242188	-212.0895385742188	624.3352050781251	-850.1631469726565	-146.3372344970703	628.1465454101564	-862.4392700195315	-130.529281616211	655.7905273437501	-871.7462158203127	-96.74240875244143	563.0139770507814	-878.9627075195315	-35.5168685913086	500.6180419921876	-888.3281250000002	-22.22441864013672	535.7044067382814	-1020.208740234375	70.31385040283205	448.408172607422	-905.7460937500002	60.25473022460939	347.7408447265626	-872.668884277344	99.987419128418	368.4213562011719	-885.5235595703127	137.6213836669922	336.6599426269532	-915.5216064453127	191.8212127685547	160.0236053466797	-903.3685302734377	213.6462707519532	193.0084686279297	-988.979919433594	162.9657135009766	97.26247406005862	-963.4100341796877	360.8369445800782	200.8506011962891	-969.6194458007815	357.7064514160157	210.3868713378907	-921.8450927734377	323.7243957519532	169.6440124511719	-873.4314575195315	
710	3.545	-185.8574371337891	1508.31494140625	-1087.923217773438	-346.4780578613282	1455.638061523438	-1160.770141601563	-365.8421936035157	1456.874633789063	-1021.359375	-407.7237854003907	1307.144287109375	-1077.21875	-515.1605834960939	993.3916015625002	-1073.580810546875	-274.8488769531251	1228.169311523438	-1083.96484375	-322.0151672363282	1311.579711914063	-1221.137329101563	-166.2257843017578	1206.610595703125	-1346.182739257813	-135.1140441894532	1241.113403320313	-1330.2841796875	-97.82603454589847	1200.99462890625	-1355.417358398438	-41.17581176757813	1205.487548828125	-1350.70166015625	-40.30535125732423	1136.517211914063	-1311.62353515625	215.7569274902344	1218.517700195313	-1280.144775390625	229.8523101806641	1192.927856445313	-1351.926147460938	308.2289428710938	1238.077026367188	-1299.53125	-326.5527038574219	1305.129150390625	-944.6456298828127	-169.3040618896485	1209.404541015625	-816.6912841796877	-136.1331024169922	1241.453979492188	-830.8026123046877	-100.4482345581055	1198.079345703125	-805.9263305664065	-56.44607543945314	1195.593627929688	-808.6309204101565	-57.37939071655275	1134.835571289063	-853.7529296875002	209.4604492187501	1241.777465820313	-906.2653808593752	210.7505187988282	1213.501953125	-831.9949951171877	286.2262268066407	1271.598022460938	-891.3128051757815	-354.9125061035157	810.373962402344	-1176.846923828125	-350.0958557128907	840.8237304687502	-930.0705566406252	-535.8594970703126	890.6999511718752	-1060.760131835938	-542.4129028320314	855.7365722656252	-1085.96044921875	-539.4622802734376	860.516296386719	-1029.423461914063	-295.8073120117188	595.9298706054689	-1244.651489257813	-214.9125213623047	569.3355102539064	-1240.34423828125	-187.0328979492188	606.8788452148439	-1235.787719726563	-193.1944885253907	514.9874877929689	-1223.80029296875	-95.63698577880861	423.5317687988282	-1191.268798828125	-68.13301849365236	454.3594360351564	-1054.020751953125	-123.8201522827149	288.4772644042969	-1102.731323242188	-189.3336334228516	259.8004760742188	-1155.738037109375	-160.1001739501953	247.209457397461	-1124.874389648438	-207.6009368896485	196.5140991210938	-1076.92236328125	-332.2810363769532	108.153060913086	-1101.87646484375	-296.8391113281251	134.252182006836	-1012.03955078125	-406.500701904297	105.6607131958008	-1038.38720703125	-197.2599029541016	55.74726867675783	-1018.118408203125	-188.6483764648438	53.03120040893556	-1067.593017578125	-242.7500152587891	38.67931747436524	-1117.892944335938	-211.599105834961	623.8359375000001	-850.329040527344	-146.1744995117188	627.7484130859376	-862.632019042969	-130.3776397705078	655.4895629882814	-871.9183349609377	-96.41121673583987	562.7346801757814	-879.136657714844	-35.17698669433594	500.3806762695314	-888.453063964844	-22.09710502624512	535.4468383789064	-1020.519165039063	70.71207427978517	447.9568481445314	-906.195983886719	60.46059417724611	347.3894042968751	-872.997009277344	100.1322860717774	368.1578063964844	-885.9645996093752	137.8609619140625	336.1137695312501	-916.0511474609377	191.8347625732422	159.6137084960938	-903.8116455078127	213.3406219482422	192.4718933105469	-989.6594848632815	162.5848846435547	96.77431488037112	-963.2994384765627	360.5209350585938	199.8061981201172	-970.687927246094	357.8827514648438	209.4420776367188	-923.1704101562502	324.0512695312501	168.8877868652344	-874.720642089844	
